<svg width="33" height="33" viewBox="0 0 33 33" fill="none" xmlns="http://www.w3.org/2000/svg">
<g clip-path="url(#clip0_6002_2348)">
<path d="M32.5714 16.4337C32.5714 7.43931 25.2801 0.147949 16.2857 0.147949C7.29136 0.147949 0 7.43931 0 16.4337C0 24.5622 5.95542 31.2998 13.7411 32.5215V21.1413H9.60603V16.4337H13.7411V12.8457C13.7411 8.76411 16.1725 6.50956 19.8924 6.50956C21.6737 6.50956 23.5379 6.82764 23.5379 6.82764V10.8354H21.4844C19.4614 10.8354 18.8304 12.0909 18.8304 13.3801V16.4337H23.3471L22.6251 21.1413H18.8304V32.5215C26.616 31.2998 32.5714 24.5622 32.5714 16.4337Z" fill="white"/>
</g>
<defs>
<clipPath id="clip0_6002_2348">
<rect width="32.5714" height="32.5714" fill="white" transform="translate(0 0.147949)"/>
</clipPath>
</defs>
</svg>
