<svg width="33" height="33" viewBox="0 0 33 33" fill="none" xmlns="http://www.w3.org/2000/svg">
<path d="M16.4302 3.08065C20.7816 3.08065 21.2969 3.09973 23.0081 3.17607C24.5986 3.24605 25.4574 3.51324 26.0299 3.7359C26.7869 4.02853 27.334 4.38478 27.9002 4.95096C28.4728 5.52351 28.8227 6.06424 29.1153 6.82128C29.3379 7.39382 29.6051 8.259 29.6751 9.84304C29.7515 11.5607 29.7705 12.076 29.7705 16.4209C29.7705 20.7723 29.7515 21.2876 29.6751 22.9988C29.6051 24.5892 29.3379 25.4481 29.1153 26.0206C28.8227 26.7776 28.4664 27.3247 27.9002 27.8909C27.3277 28.4635 26.7869 28.8134 26.0299 29.106C25.4574 29.3286 24.5922 29.5958 23.0081 29.6658C21.2905 29.7421 20.7752 29.7612 16.4302 29.7612C12.0789 29.7612 11.5636 29.7421 9.85234 29.6658C8.26194 29.5958 7.40313 29.3286 6.83058 29.106C6.07355 28.8134 5.52645 28.4571 4.96027 27.8909C4.38772 27.3184 4.03783 26.7776 3.7452 26.0206C3.52254 25.4481 3.25536 24.5829 3.18538 22.9988C3.10904 21.2812 3.08996 20.7659 3.08996 16.4209C3.08996 12.0696 3.10904 11.5543 3.18538 9.84304C3.25536 8.25264 3.52254 7.39382 3.7452 6.82128C4.03783 6.06424 4.39408 5.51715 4.96027 4.95096C5.53281 4.37842 6.07355 4.02853 6.83058 3.7359C7.40313 3.51324 8.2683 3.24605 9.85234 3.17607C11.5636 3.09973 12.0789 3.08065 16.4302 3.08065ZM16.4302 0.147949C12.0089 0.147949 11.4555 0.167034 9.71875 0.243373C7.98839 0.319713 6.79877 0.599623 5.76819 1.0004C4.69308 1.42027 3.78337 1.97373 2.88002 2.88344C1.97031 3.78679 1.41685 4.6965 0.996987 5.76525C0.596205 6.80219 0.316295 7.98545 0.239955 9.71581C0.163616 11.4589 0.144531 12.0123 0.144531 16.4337C0.144531 20.855 0.163616 21.4084 0.239955 23.1452C0.316295 24.8755 0.596205 26.0651 0.996987 27.0957C1.41685 28.1708 1.97031 29.0805 2.88002 29.9839C3.78337 30.8872 4.69308 31.4471 5.76183 31.8606C6.79877 32.2613 7.98203 32.5413 9.71239 32.6176C11.4491 32.6939 12.0026 32.713 16.4239 32.713C20.8452 32.713 21.3987 32.6939 23.1354 32.6176C24.8657 32.5413 26.0554 32.2613 27.0859 31.8606C28.1547 31.4471 29.0644 30.8872 29.9677 29.9839C30.8711 29.0805 31.4309 28.1708 31.8444 27.1021C32.2452 26.0651 32.5251 24.8819 32.6015 23.1515C32.6778 21.4148 32.6969 20.8613 32.6969 16.44C32.6969 12.0187 32.6778 11.4652 32.6015 9.72853C32.5251 7.99817 32.2452 6.80855 31.8444 5.77797C31.4436 4.6965 30.8902 3.78679 29.9805 2.88344C29.0771 1.98009 28.1674 1.42027 27.0987 1.00677C26.0617 0.605985 24.8785 0.326074 23.1481 0.249735C21.405 0.167034 20.8516 0.147949 16.4302 0.147949Z" fill="white"/>
<path d="M16.4319 8.06836C11.8134 8.06836 8.06641 11.8153 8.06641 16.4339C8.06641 21.0524 11.8134 24.7994 16.4319 24.7994C21.0504 24.7994 24.7974 21.0524 24.7974 16.4339C24.7974 11.8153 21.0504 8.06836 16.4319 8.06836ZM16.4319 21.8603C13.4356 21.8603 11.0055 19.4302 11.0055 16.4339C11.0055 13.4376 13.4356 11.0074 16.4319 11.0074C19.4282 11.0074 21.8584 13.4376 21.8584 16.4339C21.8584 19.4302 19.4282 21.8603 16.4319 21.8603Z" fill="white"/>
<path d="M27.0779 7.7372C27.0779 8.81867 26.2 9.69021 25.1249 9.69021C24.0434 9.69021 23.1719 8.81231 23.1719 7.7372C23.1719 6.65572 24.0498 5.78418 25.1249 5.78418C26.2 5.78418 27.0779 6.66208 27.0779 7.7372Z" fill="white"/>
</svg>
