<svg width="38" height="31" viewBox="0 0 38 31" fill="none" xmlns="http://www.w3.org/2000/svg">
<path d="M12.4613 30.3489C26.5153 30.3489 34.2044 18.7026 34.2044 8.6059C34.2044 8.27849 34.1971 7.9438 34.1826 7.61639C35.6783 6.53468 36.9691 5.19484 37.9944 3.6598C36.6013 4.27959 35.1223 4.68437 33.6078 4.86031C35.2024 3.90444 36.3965 2.40281 36.9685 0.633793C35.4683 1.52286 33.8277 2.15003 32.117 2.4884C30.9643 1.26366 29.4403 0.452731 27.7806 0.180999C26.1208 -0.0907324 24.4178 0.191864 22.9348 0.985096C21.4517 1.77833 20.2713 3.03802 19.576 4.5694C18.8807 6.10078 18.7093 7.81857 19.0882 9.45717C16.0505 9.30474 13.0788 8.51563 10.3656 7.14102C7.65251 5.76641 5.25854 3.83697 3.33893 1.47779C2.36328 3.15992 2.06473 5.15043 2.50395 7.04477C2.94318 8.93912 4.08722 10.5951 5.70357 11.6763C4.49011 11.6378 3.30324 11.3111 2.24101 10.7232V10.8178C2.23992 12.583 2.85019 14.2942 3.96809 15.6604C5.08598 17.0266 6.6425 17.9635 8.37306 18.3118C7.24899 18.6194 6.06922 18.6642 4.92505 18.4428C5.41338 19.9609 6.3635 21.2888 7.6428 22.2409C8.9221 23.1931 10.4667 23.7221 12.0612 23.7541C9.35431 25.8804 6.01054 27.0337 2.56842 27.0283C1.95799 27.0273 1.34815 26.9899 0.742188 26.9162C4.23901 29.1596 8.30676 30.3511 12.4613 30.3489Z" fill="black"/>
</svg>
